<mxfile host="app.diagrams.net" agent="Mozilla/5.0 (Windows NT 10.0; Win64; x64) AppleWebKit/537.36 (KHTML, like Gecko) Chrome/130.0.0.0 Safari/537.36 OPR/115.0.0.0" version="26.0.8">
  <diagram name="PÃ¡gina-1" id="MNfIkT2WvXa4tET3Nfpx">
    <mxGraphModel dx="1390" dy="761" grid="1" gridSize="10" guides="1" tooltips="1" connect="1" arrows="1" fold="1" page="1" pageScale="1" pageWidth="827" pageHeight="1169" math="0" shadow="0">
      <root>
        <mxCell id="0" />
        <mxCell id="1" parent="0" />
        <mxCell id="pJJj5fYp8JI0_WFyOW_L-7" style="edgeStyle=orthogonalEdgeStyle;rounded=0;orthogonalLoop=1;jettySize=auto;html=1;entryX=0.5;entryY=0;entryDx=0;entryDy=0;" edge="1" parent="1" source="pJJj5fYp8JI0_WFyOW_L-1" target="pJJj5fYp8JI0_WFyOW_L-4">
          <mxGeometry relative="1" as="geometry" />
        </mxCell>
        <mxCell id="pJJj5fYp8JI0_WFyOW_L-1" value="INICIO" style="strokeWidth=2;html=1;shape=mxgraph.flowchart.start_1;whiteSpace=wrap;" vertex="1" parent="1">
          <mxGeometry x="364" y="20" width="100" height="60" as="geometry" />
        </mxCell>
        <mxCell id="pJJj5fYp8JI0_WFyOW_L-3" value="FIM" style="strokeWidth=2;html=1;shape=mxgraph.flowchart.start_1;whiteSpace=wrap;" vertex="1" parent="1">
          <mxGeometry x="360" y="700" width="100" height="60" as="geometry" />
        </mxCell>
        <mxCell id="pJJj5fYp8JI0_WFyOW_L-8" style="edgeStyle=orthogonalEdgeStyle;rounded=0;orthogonalLoop=1;jettySize=auto;html=1;entryX=0.5;entryY=0;entryDx=0;entryDy=0;" edge="1" parent="1" source="pJJj5fYp8JI0_WFyOW_L-4" target="pJJj5fYp8JI0_WFyOW_L-5">
          <mxGeometry relative="1" as="geometry" />
        </mxCell>
        <mxCell id="pJJj5fYp8JI0_WFyOW_L-4" value="n = -1&lt;div&gt;maior = -1&lt;/div&gt;" style="shape=parallelogram;html=1;strokeWidth=2;perimeter=parallelogramPerimeter;whiteSpace=wrap;rounded=1;arcSize=12;size=0.23;" vertex="1" parent="1">
          <mxGeometry x="364" y="130" width="100" height="60" as="geometry" />
        </mxCell>
        <mxCell id="pJJj5fYp8JI0_WFyOW_L-5" value="enquanto(n != 0)" style="rounded=1;whiteSpace=wrap;html=1;absoluteArcSize=1;arcSize=14;strokeWidth=2;" vertex="1" parent="1">
          <mxGeometry x="349" y="250" width="130" height="40" as="geometry" />
        </mxCell>
        <mxCell id="pJJj5fYp8JI0_WFyOW_L-6" value="n" style="html=1;strokeWidth=2;shape=manualInput;whiteSpace=wrap;rounded=1;size=26;arcSize=11;" vertex="1" parent="1">
          <mxGeometry x="360" y="340" width="100" height="60" as="geometry" />
        </mxCell>
        <mxCell id="pJJj5fYp8JI0_WFyOW_L-9" style="edgeStyle=orthogonalEdgeStyle;rounded=0;orthogonalLoop=1;jettySize=auto;html=1;entryX=0.54;entryY=0.167;entryDx=0;entryDy=0;entryPerimeter=0;" edge="1" parent="1" source="pJJj5fYp8JI0_WFyOW_L-5" target="pJJj5fYp8JI0_WFyOW_L-6">
          <mxGeometry relative="1" as="geometry" />
        </mxCell>
        <mxCell id="pJJj5fYp8JI0_WFyOW_L-14" style="edgeStyle=orthogonalEdgeStyle;rounded=0;orthogonalLoop=1;jettySize=auto;html=1;entryX=0;entryY=0.5;entryDx=0;entryDy=0;" edge="1" parent="1" source="pJJj5fYp8JI0_WFyOW_L-12" target="pJJj5fYp8JI0_WFyOW_L-13">
          <mxGeometry relative="1" as="geometry" />
        </mxCell>
        <mxCell id="pJJj5fYp8JI0_WFyOW_L-16" value="V" style="edgeLabel;html=1;align=center;verticalAlign=middle;resizable=0;points=[];" vertex="1" connectable="0" parent="pJJj5fYp8JI0_WFyOW_L-14">
          <mxGeometry x="-0.2615" y="-1" relative="1" as="geometry">
            <mxPoint as="offset" />
          </mxGeometry>
        </mxCell>
        <mxCell id="pJJj5fYp8JI0_WFyOW_L-12" value="maior &amp;lt; n" style="strokeWidth=2;html=1;shape=mxgraph.flowchart.decision;whiteSpace=wrap;" vertex="1" parent="1">
          <mxGeometry x="355" y="440" width="110" height="100" as="geometry" />
        </mxCell>
        <mxCell id="pJJj5fYp8JI0_WFyOW_L-13" value="maior = n" style="rounded=1;whiteSpace=wrap;html=1;absoluteArcSize=1;arcSize=14;strokeWidth=2;" vertex="1" parent="1">
          <mxGeometry x="530" y="470" width="120" height="40" as="geometry" />
        </mxCell>
        <mxCell id="pJJj5fYp8JI0_WFyOW_L-15" style="edgeStyle=orthogonalEdgeStyle;rounded=0;orthogonalLoop=1;jettySize=auto;html=1;entryX=0.5;entryY=0;entryDx=0;entryDy=0;entryPerimeter=0;" edge="1" parent="1" source="pJJj5fYp8JI0_WFyOW_L-6" target="pJJj5fYp8JI0_WFyOW_L-12">
          <mxGeometry relative="1" as="geometry" />
        </mxCell>
        <mxCell id="pJJj5fYp8JI0_WFyOW_L-21" style="edgeStyle=orthogonalEdgeStyle;rounded=0;orthogonalLoop=1;jettySize=auto;html=1;entryX=0;entryY=0.5;entryDx=0;entryDy=0;" edge="1" parent="1" source="pJJj5fYp8JI0_WFyOW_L-17" target="pJJj5fYp8JI0_WFyOW_L-5">
          <mxGeometry relative="1" as="geometry">
            <Array as="points">
              <mxPoint x="410" y="660" />
              <mxPoint x="210" y="660" />
              <mxPoint x="210" y="270" />
            </Array>
          </mxGeometry>
        </mxCell>
        <mxCell id="pJJj5fYp8JI0_WFyOW_L-17" value="" style="strokeWidth=2;html=1;shape=mxgraph.flowchart.start_2;whiteSpace=wrap;" vertex="1" parent="1">
          <mxGeometry x="393" y="590" width="34" height="35" as="geometry" />
        </mxCell>
        <mxCell id="pJJj5fYp8JI0_WFyOW_L-18" style="edgeStyle=orthogonalEdgeStyle;rounded=0;orthogonalLoop=1;jettySize=auto;html=1;entryX=0;entryY=0.5;entryDx=0;entryDy=0;entryPerimeter=0;" edge="1" parent="1" source="pJJj5fYp8JI0_WFyOW_L-12" target="pJJj5fYp8JI0_WFyOW_L-17">
          <mxGeometry relative="1" as="geometry">
            <Array as="points">
              <mxPoint x="300" y="490" />
              <mxPoint x="300" y="608" />
            </Array>
          </mxGeometry>
        </mxCell>
        <mxCell id="pJJj5fYp8JI0_WFyOW_L-20" value="F" style="edgeLabel;html=1;align=center;verticalAlign=middle;resizable=0;points=[];" vertex="1" connectable="0" parent="pJJj5fYp8JI0_WFyOW_L-18">
          <mxGeometry x="-0.7891" y="3" relative="1" as="geometry">
            <mxPoint as="offset" />
          </mxGeometry>
        </mxCell>
        <mxCell id="pJJj5fYp8JI0_WFyOW_L-19" style="edgeStyle=orthogonalEdgeStyle;rounded=0;orthogonalLoop=1;jettySize=auto;html=1;entryX=1;entryY=0.5;entryDx=0;entryDy=0;entryPerimeter=0;" edge="1" parent="1" source="pJJj5fYp8JI0_WFyOW_L-13" target="pJJj5fYp8JI0_WFyOW_L-17">
          <mxGeometry relative="1" as="geometry">
            <Array as="points">
              <mxPoint x="590" y="608" />
              <mxPoint x="479" y="608" />
            </Array>
          </mxGeometry>
        </mxCell>
        <mxCell id="pJJj5fYp8JI0_WFyOW_L-22" style="edgeStyle=orthogonalEdgeStyle;rounded=0;orthogonalLoop=1;jettySize=auto;html=1;entryX=0.5;entryY=0;entryDx=0;entryDy=0;entryPerimeter=0;" edge="1" parent="1" source="pJJj5fYp8JI0_WFyOW_L-17" target="pJJj5fYp8JI0_WFyOW_L-3">
          <mxGeometry relative="1" as="geometry" />
        </mxCell>
      </root>
    </mxGraphModel>
  </diagram>
</mxfile>
